<svg width="512" height="277" viewBox="0 0 512 277" fill="none" xmlns="http://www.w3.org/2000/svg">
<path d="M439.583 276.738C430.907 276.745 422.423 274.178 415.206 269.362C407.989 264.546 402.362 257.698 399.038 249.684C395.713 241.67 394.84 232.85 396.529 224.34C398.217 215.829 402.392 208.011 408.525 201.874C414.658 195.736 422.473 191.556 430.982 189.861C439.491 188.166 448.312 189.032 456.329 192.351C464.345 195.67 471.197 201.292 476.018 208.506C480.839 215.719 483.412 224.201 483.412 232.877C483.407 244.502 478.788 255.651 470.571 263.874C462.353 272.098 451.208 276.724 439.583 276.738ZM439.583 205.016C434.071 205.009 428.681 206.638 424.095 209.696C419.509 212.753 415.933 217.102 413.82 222.193C411.706 227.283 411.15 232.886 412.221 238.293C413.293 243.699 415.944 248.667 419.839 252.567C423.734 256.466 428.698 259.123 434.104 260.201C439.509 261.278 445.113 260.728 450.206 258.621C455.299 256.513 459.652 252.942 462.715 248.359C465.777 243.777 467.412 238.389 467.412 232.877C467.41 225.494 464.478 218.414 459.26 213.19C454.043 207.967 446.966 205.027 439.583 205.016ZM208.447 276.738C199.77 276.747 191.286 274.181 184.067 269.367C176.849 264.553 171.22 257.705 167.894 249.692C164.568 241.678 163.693 232.857 165.381 224.346C167.068 215.835 171.242 208.016 177.375 201.877C183.507 195.739 191.322 191.557 199.832 189.862C208.341 188.166 217.162 189.032 225.179 192.35C233.197 195.669 240.049 201.291 244.871 208.504C249.692 215.718 252.266 224.2 252.266 232.877C252.257 244.5 247.639 255.645 239.425 263.867C231.21 272.09 220.07 276.719 208.447 276.738ZM208.447 205.016C202.935 205.007 197.544 206.634 192.956 209.69C188.369 212.747 184.791 217.095 182.676 222.185C180.561 227.276 180.003 232.879 181.073 238.286C182.143 243.694 184.794 248.662 188.688 252.563C192.583 256.464 197.547 259.121 202.953 260.2C208.359 261.278 213.963 260.729 219.057 258.622C224.15 256.514 228.504 252.943 231.567 248.36C234.631 243.778 236.266 238.389 236.266 232.877C236.26 225.497 233.329 218.42 228.114 213.197C222.9 207.975 215.827 205.033 208.447 205.016Z" fill="black"/>
<path d="M497.29 240.877H475.413C473.291 240.877 471.256 240.034 469.756 238.534C468.256 237.033 467.413 234.999 467.413 232.877C467.413 230.755 468.256 228.72 469.756 227.22C471.256 225.72 473.291 224.877 475.413 224.877H495.029V182.456C495.024 176.72 493.555 171.081 490.762 166.072L447.455 88.4289C447.085 87.7662 446.545 87.2143 445.891 86.8299C445.237 86.4455 444.492 86.2427 443.733 86.2422H384.714V224.909H403.765C405.886 224.909 407.921 225.752 409.422 227.252C410.922 228.752 411.765 230.787 411.765 232.909C411.765 235.031 410.922 237.065 409.422 238.566C407.921 240.066 405.886 240.909 403.765 240.909H376.714C374.592 240.909 372.558 240.066 371.057 238.566C369.557 237.065 368.714 235.031 368.714 232.909V78.2422C368.714 76.1205 369.557 74.0856 371.057 72.5853C372.558 71.085 374.592 70.2422 376.714 70.2422H443.733C447.342 70.2404 450.886 71.2025 453.999 73.029C457.112 74.8554 459.68 77.48 461.439 80.6315L504.735 158.285C508.852 165.676 511.014 173.995 511.018 182.456V227.149C511.012 230.788 509.564 234.276 506.991 236.85C504.418 239.423 500.929 240.871 497.29 240.877ZM172.618 240.877H95.9141C93.7923 240.877 91.7575 240.034 90.2572 238.534C88.7569 237.033 87.9141 234.999 87.9141 232.877V171.352C87.9141 169.23 88.7569 167.195 90.2572 165.695C91.7575 164.194 93.7923 163.352 95.9141 163.352C98.0358 163.352 100.071 164.194 101.571 165.695C103.071 167.195 103.914 169.23 103.914 171.352V224.877H172.618C174.74 224.877 176.775 225.72 178.275 227.22C179.775 228.72 180.618 230.755 180.618 232.877C180.618 234.999 179.775 237.033 178.275 238.534C176.775 240.034 174.74 240.877 172.618 240.877ZM95.9141 142.968C93.7923 142.968 91.7575 142.125 90.2572 140.624C88.7569 139.124 87.9141 137.089 87.9141 134.968V81.2502C87.9141 79.1285 88.7569 77.0936 90.2572 75.5933C91.7575 74.093 93.7923 73.2502 95.9141 73.2502C98.0358 73.2502 100.071 74.093 101.571 75.5933C103.071 77.0936 103.914 79.1285 103.914 81.2502V135C103.906 137.116 103.059 139.142 101.56 140.636C100.06 142.129 98.0303 142.968 95.9141 142.968Z" fill="black"/>
<path d="M376.715 240.877H244.267C242.145 240.877 240.111 240.034 238.61 238.533C237.11 237.033 236.267 234.998 236.267 232.877C236.267 230.755 237.11 228.72 238.61 227.22C240.111 225.719 242.145 224.877 244.267 224.877H368.715V15.5859H103.915V48.5353C103.915 50.657 103.072 52.6918 101.572 54.1921C100.072 55.6924 98.0369 56.5353 95.9152 56.5353C93.7935 56.5353 91.7586 55.6924 90.2583 54.1921C88.7581 52.6918 87.9152 50.657 87.9152 48.5353V14.1139C87.9208 10.2608 89.4547 6.56717 92.1804 3.84356C94.906 1.11995 98.6007 -0.411242 102.454 -0.414062H370.187C374.039 -0.40842 377.731 1.12401 380.454 3.84732C383.177 6.57063 384.71 10.2626 384.715 14.1139V232.877C384.715 234.998 383.872 237.033 382.372 238.533C380.872 240.034 378.837 240.877 376.715 240.877ZM127.542 179.351H26.0059C23.8841 179.351 21.8493 178.508 20.349 177.008C18.8487 175.508 18.0059 173.473 18.0059 171.351C18.0059 169.23 18.8487 167.195 20.349 165.694C21.8493 164.194 23.8841 163.351 26.0059 163.351H127.542C129.664 163.351 131.698 164.194 133.199 165.694C134.699 167.195 135.542 169.23 135.542 171.351C135.542 173.473 134.699 175.508 133.199 177.008C131.698 178.508 129.664 179.351 127.542 179.351Z" fill="black"/>
<path d="M208.448 142.967H66.7626C64.6409 142.967 62.6061 142.124 61.1058 140.624C59.6055 139.124 58.7626 137.089 58.7626 134.967C58.7626 132.845 59.6055 130.811 61.1058 129.31C62.6061 127.81 64.6409 126.967 66.7626 126.967H208.448C210.57 126.967 212.605 127.81 214.105 129.31C215.605 130.811 216.448 132.845 216.448 134.967C216.448 137.089 215.605 139.124 214.105 140.624C212.605 142.124 210.57 142.967 208.448 142.967ZM62.3573 100.727H7.0293C4.90757 100.727 2.87273 99.8843 1.37244 98.384C-0.127848 96.8837 -0.970703 94.8489 -0.970703 92.7272C-0.970703 90.6054 -0.127848 88.5706 1.37244 87.0703C2.87273 85.57 4.90757 84.7272 7.0293 84.7272H62.3573C64.479 84.7272 66.5139 85.57 68.0142 87.0703C69.5144 88.5706 70.3573 90.6054 70.3573 92.7272C70.3573 94.8489 69.5144 96.8837 68.0142 98.384C66.5139 99.8843 64.479 100.727 62.3573 100.727ZM151.072 56.5351H53.408C51.2862 56.5351 49.2514 55.6923 47.7511 54.192C46.2508 52.6917 45.408 50.6569 45.408 48.5352C45.408 46.4134 46.2508 44.3786 47.7511 42.8783C49.2514 41.378 51.2862 40.5352 53.408 40.5352H151.072C153.194 40.5352 155.229 41.378 156.729 42.8783C158.229 44.3786 159.072 46.4134 159.072 48.5352C159.072 50.6569 158.229 52.6917 156.729 54.192C155.229 55.6923 153.194 56.5351 151.072 56.5351Z" fill="black"/>
</svg>
